<?xml version="1.0" encoding="UTF-8"?>
<svg version="1.1" viewBox="0 0 1792 964" width="1280" height="1280" xmlns="http://www.w3.org/2000/svg">
<path transform="translate(0)" d="m0 0h1792v964h-1792z" fill="#FDFCFC"/>
<path transform="translate(577,88)" d="m0 0 5 1 19 14 14 10 38 28 36 26 11 8 15 11 18 13 21 16 19 13 18 13 12 9 19 14 11 8 18 13 16 12 13 9 11 8 16 12 11 8 18 13 16 12 15 11 16 11 7 1 700 1 1 1v55l-1 1h-710l-13-1-10-5-18-13-18-14-19-13-17-13-18-13-17-12-8-6-19-14-17-12-18-13-21-16-18-13-19-14-20-14-17-12-21-16-19-14-18-13-14-10-16-12-11-8-12-9-4-1-11 7-16 12-18 13-14 10-19 14-20 15-17 12-12 9-18 13-17 12-19 14-36 26-18 14-18 13-23 16-17 12-9 7 1 4 62 1 1 1v426l1 6 259 1v56l-19 1h-53l-243-1-1-22-1-376-1-34-163-1-22-1 2-4 11-7 57-42 17-12 18-13 12-9 11-8 14-10 16-12 14-10 17-13 17-12 15-11 11-8 18-13 12-9 14-10 17-13 28-20 18-13 11-8 19-14 14-10 12-9 36-26 19-14 18-13 10-7z" fill="#FEB043"/>
<path transform="translate(436,520)" d="m0 0h59l16 3 9 4 9 6 7 8 5 11 2 11v9l-3 12-4 8-7 8-12 8 1 4 13 19 11 16 2 4h-23l-6-7-11-16-10-15-3-1h-27l-6 1-2 37-2 1h-16l-3-1v-129z" fill="#080708"/>
<path transform="translate(747,520)" d="m0 0h10l6 2 5 8 11 26 15 33 12 27 9 19 6 16h-22l-4-6-9-22-2-2h-66l-7 15-7 14-3 1h-16l-2-1 3-10 28-63 16-35 8-19 2-2z" fill="#080708"/>
<path transform="translate(574,520)" d="m0 0h86l7 1v14l-1 3-2 1-68 1v35l63 1v12l-2 6h-61v37l7 1 67 1 1 5-1 12-2 1h-92l-3-1-1-4v-124z" fill="#080708"/>
<path transform="translate(1394,520)" d="m0 0h8l4 2 13 28 15 33 19 41 9 20 2 5v3l-13-1-9-19-6-14-1-1h-74l-14 32-2 2h-12l3-9 16-35 17-37 15-33 8-16z" fill="#080708"/>
<path transform="translate(841,521)" d="m0 0h22l1 111h67l2 1v11l-2 7h-90z" fill="#080708"/>
<path transform="translate(1591,520)" d="m0 0h88l1 4-1 7-75 1-1 47h59l10 1-1 10-67 1-1 49 80 1v10l-40 1h-28l-24-1-1-2v-128z" fill="#080708"/>
<path transform="translate(1012,520)" d="m0 0h87v11h-76l1 48 67 1v10l-67 1-1 50h80l-1 10h-91l-1-4v-126z" fill="#080708"/>
<path transform="translate(1167,519)" d="m0 0h17l17 4 13 5 2 3-4 8-5-1-13-5-17-3-14 1-12 4-8 7-3 10 1 9 5 8 6 4 15 5 29 8 14 7 8 9 2 5 1 13-2 10-6 9-9 7-10 4-9 2h-25l-16-4-11-5-6-4-2-5 3-7 9 5 10 5 12 3 8 1h12l12-2 8-4 5-4 3-6v-14l-4-6v-2l-4-2-16-6-31-9-12-6-7-6-4-7-1-4v-14l3-10 6-9 10-6 13-4z" fill="#080708"/>
<path transform="translate(722,383)" d="m0 0h44l12 1 1 1v54l-5 1h-42l-9-1-1-22z" fill="#FEB043"/>
<path transform="translate(434,383)" d="m0 0h49l7 1 1 2v53l-3 1h-40l-12-1-1-1-1-28z" fill="#FEB043"/>
<path transform="translate(576,382)" d="m0 0h55l1 1v55l-1 1h-41l-13-1-1-1-1-54z" fill="#FEB043"/>
<path transform="translate(458,539)" d="m0 0h40l11 4 6 5 4 7 1 4v16l-5 10-9 6-9 2-16 1h-20l-4-1-1-38 1-15z" fill="#FDFBFA"/>
<path transform="translate(1462,520)" d="m0 0h105v8l-2 3-20 1h-22l-2 1-1 117-1 1h-11l-1-118-33-1-12-1-1-2v-8z" fill="#080708"/>
<path transform="translate(1230,520)" d="m0 0h105l1 1v9l-1 1-46 1v119h-12l-1-72v-46l-4-1-41-1-1-2z" fill="#080708"/>
<path transform="translate(1397,535)" d="m0 0 3 1 12 25 13 30 5 12v2l-10 1h-30l-24-1 7-17 18-40 5-12z" fill="#FDFBF8"/>
<path transform="translate(1547,708)" d="m0 0h19l-1 17v23l5 1 4-5 10-19 6-9 1-5-2-1v-2h22v8l14 23 5 7v2l3 1v3h-21l-1-3v-8h-21l-2 4-2 7h-38v-41z" fill="#0C0A0B"/>
<path transform="translate(1369,693)" d="m0 0 4 1-1 13-4-1-1-1h-34l-1 10h17l13-1-1 12-3-1h-25l-1 19 36-1 5-1 1 4-1 8-3-1-55-1v-53l-1-3 55-1z" fill="#080708"/>
<path transform="translate(1638,708)" d="m0 0h18l4 7 11 9 7 7h2v-16l-1-7h17l-1 38 1 5-1 1h-17l-3-7-13-11-9-6 1 20 1 3-1 1h-15l-1-2 1-7v-31z" fill="#080708"/>
<path transform="translate(749,544)" d="m0 0 4 2 6 12 14 32 3 8-1 5h-47l-1-1 1-8 6-15 12-28z" fill="#FDFBF8"/>
<path transform="translate(1502,708)" d="m0 0h16l17 4 3 1-2 5-2 4-3 1-10-5-4-1h-12l-3 4v2l25 3 7 3 5 6-1 7-5 6-7 3-5 1-19-1-14-4 5-10 10 5 6 1h11l3-2 1-4-25-2-8-4-3-7 1-7 5-5z" fill="#080708"/>
<path transform="translate(1427,708)" d="m0 0h25v8l3 3 5-1 2-2 1-8h21l-1 3-5 5-12 16-1 3v12l1 4-3 1h-15l1-18-10-12-7-9z" fill="#080708"/>
<path transform="translate(1382,708)" d="m0 0h18l-1 10-1 26 26-1 4-2 1 4-1 8-44-1-2-2 1-25v-13z" fill="#080708"/>
<path transform="translate(1547,708)" d="m0 0h19l-1 17v23l4 3-5 1h-16v-41z" fill="#080708"/>
<path transform="translate(1637,708)" d="m0 0 3 4v31l-1 9h-2l-1-3 1-1z" fill="#FEB043"/>
</svg>
